<svg width="370" height="91" viewBox="0 0 370 91" fill="none" xmlns="http://www.w3.org/2000/svg">
<path d="M12.9982 49.4637V0.667141H29.271C32.5134 0.667141 35.1876 1.25486 37.2937 2.4303C39.3997 3.58985 40.9679 5.15446 41.9982 7.12411C43.0285 9.07788 43.5437 11.2461 43.5437 13.6287C43.5437 15.7255 43.1876 17.4569 42.4755 18.8229C41.7785 20.189 40.8543 21.2691 39.7028 22.0633C38.5664 22.8575 37.3316 23.4452 35.9982 23.8265V24.303C37.4225 24.3983 38.8543 24.9225 40.2937 25.8755C41.7331 26.8286 42.9376 28.1946 43.9073 29.9737C44.877 31.7527 45.3619 33.9289 45.3619 36.5021C45.3619 38.9483 44.8316 41.1483 43.771 43.1021C42.7103 45.0558 41.0361 46.6046 38.7482 47.7482C36.4603 48.8919 33.4831 49.4637 29.8164 49.4637H12.9982ZM24.4977 41.9107L29.8164 44.2219C33.4982 44.2219 36.1119 43.4753 37.6573 41.9822C39.2179 40.4732 39.9982 38.6465 39.9982 36.5021C39.9982 34.8502 39.5967 33.3253 38.7937 31.9275C37.9906 30.5138 36.8467 29.386 35.3619 28.5441C33.877 27.6863 32.1194 27.2575 30.0891 27.2575H18.6346L24.4977 41.9107ZM18.6346 22.111H29.0891C30.7861 22.111 32.3164 21.7615 33.68 21.0626C35.0588 20.3637 36.1497 19.3789 36.9528 18.1081C37.771 16.8374 38.18 15.3442 38.18 13.6287C38.18 11.4844 37.4679 9.6656 36.0437 8.17248C34.6194 6.66347 32.3619 5.90896 29.271 5.90896L24.4977 10.5075L18.6346 22.111Z" fill="#4F3130"/>
<path d="M54.6232 49.4637V0.667141H82.7141L83.0778 15.6302L60.2596 5.90896V22.3969H81.2596V27.6387H60.2596V44.2219L83.0778 35.6444V49.4637H54.6232Z" fill="#4F3130"/>
<path d="M94.7823 49.4637H88.8732L105.964 0.667141H111.782L128.873 49.4637H122.964L105.093 19.0135L108.691 8.38691L94.7823 49.4637ZM96.9641 30.4026H120.782V35.6444H96.9641V30.4026Z" fill="#4F3130"/>
<path d="M160.896 2.62091L172.305 0.667141V32.9758C172.305 36.3115 171.555 39.2898 170.055 41.9107C168.57 44.5158 166.472 46.5728 163.76 48.0818C161.047 49.5749 157.866 50.3215 154.214 50.3215C150.563 50.3215 147.381 49.5749 144.669 48.0818C141.957 46.5728 139.851 44.5158 138.351 41.9107C136.866 39.2898 136.123 36.3115 136.123 32.9758V0.667141L147.532 1.71551L141.76 32.4993C141.76 34.8819 142.26 37.0025 143.26 38.861C144.26 40.7035 145.684 42.1569 147.532 43.2212C149.396 44.2696 151.623 44.7937 154.214 44.7937C156.805 44.7937 159.032 44.2696 160.896 43.2212C162.76 42.1569 164.184 40.7035 165.169 38.861C166.169 37.0025 166.669 34.8819 166.669 32.4993L160.896 2.62091Z" fill="#4F3130"/>
<path d="M202.833 22.4445V31.9275H182.47V22.4445H202.833Z" fill="#4F3130"/>
<path d="M214.907 49.4637H208.998L226.089 0.667141H231.907L248.998 49.4637H243.089L226.089 19.0135L214.907 49.4637ZM217.089 30.4026H240.907V35.6444H217.089V30.4026Z" fill="#4F3130"/>
<path d="M256.248 49.4637V0.667141H271.975C275.612 0.667141 278.597 1.3184 280.93 2.62091C283.263 3.90754 284.991 5.67864 286.112 7.93421C287.233 10.1898 287.794 12.7551 287.794 15.6302C287.794 18.5052 287.233 21.0546 286.112 23.2785C284.991 25.5023 283.271 27.2495 280.953 28.5203C278.635 29.7751 275.672 30.4026 272.066 30.4026H259.339V25.0654H271.885C274.369 25.0654 276.369 24.6842 277.885 23.9218C279.415 23.1593 280.521 22.0792 281.203 20.6814C281.9 19.2677 282.248 17.5839 282.248 15.6302C282.248 13.6764 281.9 11.9688 281.203 10.5075C280.506 9.04611 279.392 7.91833 277.862 7.12411C276.332 6.31401 274.309 5.90896 271.794 5.90896H261.885V49.4637H256.248ZM278.157 27.5434L294.64 44.1266L283.066 49.4637L271.794 27.5434H278.157Z" fill="#4F3130"/>
<path d="M294.64 9.17319V0.667141H329.549V9.17319L314.913 8.38691V49.4637H309.277V9.17319H294.64Z" fill="#4F3130"/>
<path d="M363.703 12.8663C363.43 10.4519 362.324 8.57753 360.385 7.24324C358.445 5.90896 356.066 5.24182 353.248 5.24182C351.188 5.24182 349.385 5.59128 347.839 6.29018C346.309 6.98909 345.112 7.95009 344.248 9.17319C343.4 10.3963 342.975 11.7862 342.975 13.3428C342.975 14.6453 343.271 15.7652 343.862 16.7023C344.468 17.6236 345.241 18.394 346.18 19.0135C347.119 19.6171 348.104 20.1175 349.135 20.5146C350.165 20.8958 351.112 21.2055 351.975 21.4438L356.703 22.7781C357.915 23.1117 359.263 23.5723 360.748 24.16C362.248 24.7477 363.68 25.5499 365.044 26.5665C366.422 27.5672 367.559 28.8538 368.453 30.4264C369.347 31.9989 369.794 33.9289 369.794 36.2162C369.794 38.853 369.135 41.2357 367.816 43.3642C366.513 45.4927 364.604 47.1843 362.089 48.4392C359.589 49.6941 29.0891 69.7162 24.4977 54.5149C-109.003 138.908 346.756 49.7576 344.316 48.6298C341.877 47.502 339.983 45.9295 338.589 43.9122C337.21 41.8949 336.43 39.5519 336.248 36.8834H342.066C342.218 38.7259 342.809 40.2508 343.839 41.458C344.885 42.6494 346.203 43.5389 347.794 44.1266C349.4 44.6984 351.127 44.9844 352.975 44.9844C355.127 44.9844 342.604 49.3605 344.316 48.6298C346.028 47.8832 361.839 42.1093 362.839 40.7909C363.839 39.4566 364.339 37.9 364.339 36.1209C364.339 34.5007 363.907 33.1823 363.044 32.1657C362.18 31.1491 361.044 30.3231 359.635 29.6878C358.225 29.0524 356.703 28.4964 355.066 28.0199L349.339 26.3044C345.703 25.2084 342.824 23.6438 340.703 21.6106C338.582 19.5774 337.521 16.9168 337.521 13.6287C337.521 10.8966 338.225 8.51399 339.635 6.4808C341.059 4.43172 342.968 2.84329 345.362 1.71551C347.771 0.571835 350.46 0 353.43 0C356.43 0 359.097 0.563893 361.43 1.69168C363.763 2.80358 365.612 4.32847 366.975 6.26636C368.354 8.20424 369.082 10.4042 369.157 12.8663H363.703Z" fill="#4F3130"/>
</svg>
